<?xml version="1.0" standalone="no"?><!DOCTYPE svg PUBLIC "-//W3C//DTD SVG 1.1//EN" "http://www.w3.org/Graphics/SVG/1.1/DTD/svg11.dtd"><svg t="1699971343596" class="icon" viewBox="0 0 1024 1024" version="1.1" xmlns="http://www.w3.org/2000/svg" p-id="4987" xmlns:xlink="http://www.w3.org/1999/xlink" width="200" height="200"><path d="M904.533333 904.533333h-785.066666c-58.026667 0-102.4-44.373333-102.4-102.4v-273.066666c0-58.026667 44.373333-102.4 102.4-102.4h785.066666c58.026667 0 102.4 44.373333 102.4 102.4v273.066666c0 58.026667-44.373333 102.4-102.4 102.4z m-785.066666-443.733333c-37.546667 0-68.266667 30.72-68.266667 68.266667v273.066666c0 37.546667 30.72 68.266667 68.266667 68.266667h785.066666c37.546667 0 68.266667-30.72 68.266667-68.266667v-273.066666c0-37.546667-30.72-68.266667-68.266667-68.266667h-785.066666z" fill="#65dbb5" p-id="4988"></path><path d="M187.733333 460.8c-3.413333 0-10.24 0-13.653333-3.413333-6.826667-6.826667-6.826667-17.066667 0-23.893334l221.866667-221.866666c6.826667-6.826667 17.066667-6.826667 23.893333 0s6.826667 17.066667 0 23.893333l-221.866667 221.866667c0 3.413333-6.826667 3.413333-10.24 3.413333zM819.2 460.8c-3.413333 0-6.826667 0-10.24-3.413333l-238.933333-221.866667c-6.826667-6.826667-6.826667-17.066667 0-23.893333 6.826667-6.826667 17.066667-6.826667 23.893333 0l238.933333 221.866666c6.826667 6.826667 6.826667 17.066667 0 23.893334-3.413333 0-10.24 3.413333-13.653333 3.413333z" fill="#65dbb5" p-id="4989"></path><path d="M494.933333 324.266667c-58.026667 0-102.4-44.373333-102.4-102.4s44.373333-102.4 102.4-102.4 102.4 44.373333 102.4 102.4-44.373333 102.4-102.4 102.4z m0-170.666667c-37.546667 0-68.266667 30.72-68.266666 68.266667s30.72 68.266667 68.266666 68.266666 68.266667-30.72 68.266667-68.266666-30.72-68.266667-68.266667-68.266667zM819.2 768h-102.4c-10.24 0-17.066667-6.826667-17.066667-17.066667v-170.666666c0-10.24 6.826667-17.066667 17.066667-17.066667h102.4c10.24 0 17.066667 6.826667 17.066667 17.066667s-6.826667 17.066667-17.066667 17.066666h-85.333333v136.533334H819.2c10.24 0 17.066667 6.826667 17.066667 17.066666s-6.826667 17.066667-17.066667 17.066667z" fill="#65dbb5" p-id="4990"></path><path d="M819.2 682.666667h-102.4c-10.24 0-17.066667-6.826667-17.066667-17.066667s6.826667-17.066667 17.066667-17.066667h102.4c10.24 0 17.066667 6.826667 17.066667 17.066667s-6.826667 17.066667-17.066667 17.066667zM648.533333 768h-102.4c-10.24 0-17.066667-6.826667-17.066666-17.066667v-170.666666c0-10.24 6.826667-17.066667 17.066666-17.066667s17.066667 6.826667 17.066667 17.066667v153.6H648.533333c10.24 0 17.066667 6.826667 17.066667 17.066666s-6.826667 17.066667-17.066667 17.066667zM460.8 768c-6.826667 0-13.653333-6.826667-17.066667-13.653333l-27.306666-105.813334-27.306667 105.813334c-3.413333 10.24-10.24 13.653333-20.48 13.653333-10.24-3.413333-13.653333-10.24-13.653333-20.48l44.373333-170.666667c3.413333-13.653333 30.72-13.653333 34.133333 0l44.373334 170.666667c3.413333 10.24-3.413333 17.066667-13.653334 20.48h-3.413333z" fill="#65dbb5" p-id="4991"></path><path d="M440.32 733.866667h-44.373333c-10.24 0-17.066667-6.826667-17.066667-17.066667s6.826667-17.066667 17.066667-17.066667h44.373333c10.24 0 17.066667 6.826667 17.066667 17.066667s-6.826667 17.066667-17.066667 17.066667z" fill="#65dbb5" p-id="4992"></path><path d="M256 768c-37.546667 0-64.853333-23.893333-68.266667-54.613333 0-10.24 6.826667-17.066667 17.066667-17.066667s17.066667 6.826667 17.066667 17.066667c0 13.653333 17.066667 23.893333 34.133333 23.893333s34.133333-10.24 34.133333-27.306667c0-13.653333-10.24-20.48-34.133333-23.893333h-3.413333c-51.2-10.24-61.44-37.546667-61.44-58.026667 0-34.133333 30.72-61.44 68.266666-61.44s64.853333 23.893333 68.266667 54.613334c0 10.24-6.826667 17.066667-17.066667 17.066666s-17.066667-6.826667-17.066666-17.066666c0-13.653333-17.066667-23.893333-34.133334-23.893334s-34.133333 10.24-34.133333 27.306667c0 13.653333 10.24 20.48 34.133333 23.893333v17.066667l3.413334-17.066667c51.2 10.24 61.44 37.546667 61.44 58.026667 0 34.133333-30.72 61.44-68.266667 61.44z" fill="#65dbb5" p-id="4993"></path></svg>